<svg xmlns="http://www.w3.org/2000/svg" viewBox="0 0 219.61 219.61"><defs><style>.cls-1{fill:#fff;}</style></defs><g id="Layer_2" data-name="Layer 2"><g id="Ebene_1" data-name="Ebene 1"><path class="cls-1" d="M109.8,0A109.81,109.81,0,1,0,219.61,109.8,109.8,109.8,0,0,0,109.8,0ZM86,66.7a5.94,5.94,0,0,1,.45-1.77,6.19,6.19,0,0,1,.93-1.57,5.92,5.92,0,0,1,.41-.45,4.47,4.47,0,0,1,.45-.42l.5-.36a5.76,5.76,0,0,1,1.07-.57A5.26,5.26,0,0,1,91,61.21l.6-.09c.2,0,.41,0,.61,0a6.25,6.25,0,0,1,6.23,6.23c0,.2,0,.41,0,.61s-.06.4-.1.6A6.84,6.84,0,0,1,98,69.69a6.14,6.14,0,0,1-.58,1.07,3.43,3.43,0,0,1-.36.49,4.49,4.49,0,0,1-.41.46,6.1,6.1,0,0,1-.46.41,4.29,4.29,0,0,1-.48.36,5.58,5.58,0,0,1-1.08.57,6.21,6.21,0,0,1-1.16.36c-.2,0-.41.07-.61.09a6.08,6.08,0,0,1-.61,0c-.2,0-.41,0-.61,0s-.4,0-.6-.09a5.87,5.87,0,0,1-1.17-.36,5.22,5.22,0,0,1-1.07-.57,5.74,5.74,0,0,1-.5-.36,5.92,5.92,0,0,1-.45-.41,6.1,6.1,0,0,1-.41-.46,4.41,4.41,0,0,1-.36-.49,5.5,5.5,0,0,1-.57-1.07,6.08,6.08,0,0,1-.36-1.17q-.06-.3-.09-.6A6.22,6.22,0,0,1,86,66.7Zm63.4,93A56,56,0,1,1,70.2,80.51a6.23,6.23,0,0,1,8.8,0l17.6,17.6a6.22,6.22,0,0,1,0,8.8,18.68,18.68,0,1,0,26.41,0L105.4,89.31a6.23,6.23,0,0,1,8.81-8.8l17.6,17.6a31.12,31.12,0,1,1-48,4.85L74.91,94a43.57,43.57,0,1,0,65.7-4.71L105.4,54.1a6.23,6.23,0,0,1,8.81-8.8l35.2,35.21a56,56,0,0,1,0,79.21Z"/></g></g></svg>