<svg xmlns="http://www.w3.org/2000/svg" viewBox="0 0 832.06 140.2"><defs><style>.cls-1{fill:#fff;}</style></defs><g id="Layer_2" data-name="Layer 2"><g id="Ebene_1" data-name="Ebene 1"><path class="cls-1" d="M237.44,59.46c0,16.28-12.21,26.4-31.72,26.4H191V106H174.1V33h31.62C225.23,33,237.44,43.07,237.44,59.46Zm-17.11,0c0-8-5.22-12.73-15.55-12.73H191V72.08h13.78C215.11,72.08,220.33,67.39,220.33,59.46Z"/><path class="cls-1" d="M290.24,73.86V33h16.91V73.23c0,13.88,6.05,19.62,16.28,19.62s16.28-5.74,16.28-19.62V33h16.7V73.86c0,21.5-12.32,33.39-33.08,33.39S290.24,95.36,290.24,73.86Z"/><path class="cls-1" d="M414.84,33H448c23.9,0,40.28,14.4,40.28,36.53S471.93,106,448,106H414.84ZM447.2,92.12c14.5,0,24-8.66,24-22.64s-9.5-22.65-24-22.65H431.75V92.12Z"/><path class="cls-1" d="M542.78,33H576c23.9,0,40.28,14.4,40.28,36.53S599.87,106,576,106H542.78Zm32.35,59.17c14.51,0,24-8.66,24-22.64s-9.5-22.65-24-22.65H559.69V92.12Z"/><path class="cls-1" d="M670.72,33h16.91V92.23h36.63V106H670.72Z"/><path class="cls-1" d="M832.06,92.43V106H775.49V33H830.7V46.52H792.29V62.38h33.92V75.53H792.29v16.9Z"/><path class="cls-1" d="M54.55,1.93a6.57,6.57,0,0,0,0,9.3L91.76,48.44A46,46,0,1,1,13.16,81a45.68,45.68,0,0,1,9.16-27.58l9.44,9.44a32.89,32.89,0,1,0,50.7-5.12L63.85,39.14a6.58,6.58,0,0,0-9.3,9.3L73.16,67.05a19.73,19.73,0,1,1-27.91,0,6.58,6.58,0,0,0,0-9.31L26.64,39.14a6.57,6.57,0,0,0-9.3,0,59.2,59.2,0,0,0,83.73,83.72,59.2,59.2,0,0,0,0-83.72L63.85,1.93A6.57,6.57,0,0,0,54.55,1.93Z"/><path class="cls-1" d="M41.88,31.63a6.69,6.69,0,0,0,1.23-.37,6.93,6.93,0,0,0,1.14-.61,6.28,6.28,0,0,0,.52-.38c.16-.14.33-.28.48-.44a7.44,7.44,0,0,0,.82-1,6.41,6.41,0,0,0,.6-1.13A6.69,6.69,0,0,0,47,26.47a4.72,4.72,0,0,0,.1-.64,4.58,4.58,0,0,0,0-.64A6.59,6.59,0,0,0,40.6,18.6c-.22,0-.43,0-.65,0s-.43.05-.64.09a7.6,7.6,0,0,0-1.23.38,6.41,6.41,0,0,0-1.13.6,6.55,6.55,0,0,0-.53.39,6.29,6.29,0,0,0-.47.43c-.16.16-.3.32-.44.48l-.38.52a6.93,6.93,0,0,0-.61,1.14,6.69,6.69,0,0,0-.37,1.23,4.49,4.49,0,0,0-.1.64,7,7,0,0,0,0,1.29,4.72,4.72,0,0,0,.1.64,6.69,6.69,0,0,0,.37,1.23,6.46,6.46,0,0,0,.61,1.13c.12.18.25.36.38.52a4,4,0,0,0,.44.48c.15.16.31.3.47.44a7.63,7.63,0,0,0,1.66,1,6.69,6.69,0,0,0,1.23.37,4.49,4.49,0,0,0,.64.1c.22,0,.43,0,.65,0s.43,0,.65,0A4.58,4.58,0,0,0,41.88,31.63Z"/></g></g></svg>