<svg xmlns="http://www.w3.org/2000/svg" viewBox="0 0 156.61 225.34"><defs><style>.cls-1{font-size:22.55px;font-family:Montserrat-Bold, Montserrat;font-weight:700;letter-spacing:0.39em;}.cls-1,.cls-3{fill:#fff;}.cls-2{letter-spacing:0.4em;}</style></defs><g id="Layer_2" data-name="Layer 2"><g id="Ebene_1" data-name="Ebene 1"><text class="cls-1" transform="translate(1.25 219.34)">P<tspan class="cls-2" x="25.24" y="0">UDDLE</tspan></text><path class="cls-3" d="M72.15,2.55a8.71,8.71,0,0,0,0,12.3l49.22,49.22A60.9,60.9,0,1,1,35.24,150.2a60.92,60.92,0,0,1-5.72-79.54L42,83.15a43.51,43.51,0,1,0,67.06-6.77L84.46,51.77a8.7,8.7,0,0,0-12.31,12.3L96.76,88.68a26.1,26.1,0,1,1-36.91,0,8.69,8.69,0,0,0,0-12.3L35.24,51.77a8.69,8.69,0,0,0-12.3,0A78.31,78.31,0,0,0,133.68,162.51a78.32,78.32,0,0,0,0-110.74L84.46,2.55A8.7,8.7,0,0,0,72.15,2.55Z"/><path class="cls-3" d="M55.4,41.84A9.17,9.17,0,0,0,57,41.35a10.36,10.36,0,0,0,1.51-.8c.23-.16.46-.33.68-.51s.44-.38.64-.58.39-.41.57-.63a8.17,8.17,0,0,0,.51-.69,9.38,9.38,0,0,0,.8-1.5A9.27,9.27,0,0,0,62.22,35c.06-.28.1-.56.14-.85s0-.57,0-.85a8.71,8.71,0,0,0-8.7-8.7c-.29,0-.57,0-.86,0a8.13,8.13,0,0,0-.84.13,8.61,8.61,0,0,0-3.13,1.29q-.36.24-.69.51c-.23.18-.43.38-.64.58s-.39.41-.57.63a8,8,0,0,0-.5.69,8.85,8.85,0,0,0-1.31,3.13c0,.28-.09.56-.12.85a8.05,8.05,0,0,0,0,1.7c0,.29.07.57.12.85a8.52,8.52,0,0,0,.5,1.63,8.69,8.69,0,0,0,.81,1.5,8,8,0,0,0,.5.69q.27.33.57.63c.21.2.41.4.64.58s.45.35.69.51a9.77,9.77,0,0,0,1.5.8,9,9,0,0,0,1.63.49,8.13,8.13,0,0,0,.84.13c.29,0,.57,0,.86,0s.57,0,.85,0A8.32,8.32,0,0,0,55.4,41.84Z"/></g></g></svg>