<svg xmlns="http://www.w3.org/2000/svg" viewBox="0 0 54 37.5"><defs><style>.cls-1{fill:#0071ce;}</style></defs><g id="Layer_2" data-name="Layer 2"><g id="Layer_1_1:1_" data-name="Layer 1 (1:1)"><path class="cls-1" d="M49.4,33.4,47,30.5l-2.5,2.9H29.2V19.9H24.3L30.4,4.8h5.9L38.4,10V4.8h7.3L47,8.7l1.3-3.9h5.6V2.5A2.38,2.38,0,0,0,51.6,0H2.3A2.38,2.38,0,0,0,0,2.5V35a2.38,2.38,0,0,0,2.3,2.5H51.6A2.38,2.38,0,0,0,53.9,35V33.4Z"/><polygon class="cls-1" points="50.1 31.9 54 31.9 48.9 26 54 20.1 50.2 20.1 47 23.9 43.9 20.1 40 20.1 45.1 26 40 31.9 43.8 31.9 47 28.1 50.1 31.9"/><polygon class="cls-1" points="33.8 29.1 33.8 27.3 39.9 27.3 39.9 24.7 33.8 24.7 33.8 22.8 40 22.8 40 20.1 30.8 20.1 30.8 31.9 40 31.9 40 29.1 33.8 29.1"/><polygon class="cls-1" points="51.1 18.4 53.9 18.4 53.9 6.7 49.5 6.7 47 14 44.6 6.7 40 6.7 40 18.4 42.9 18.4 42.9 10.2 45.7 18.4 48.3 18.4 51.1 10.2 51.1 18.4"/><path class="cls-1" d="M35.2,6.7H31.4L26.6,18.4h3.2l.9-2.3h5l.9,2.3H40Zm-3.4,6.7,1.5-3.8,1.5,3.8Z"/><polygon class="cls-1" points="51.3 25.6 54 28.9 54 22.4 51.3 25.6"/></g></g></svg>