<svg xmlns="http://www.w3.org/2000/svg" viewBox="0 0 57.25 35.8"><defs><style>.cls-1{fill:#d01f38;}.cls-2{fill:#162e50;}.cls-3{fill:#007b7e;}.cls-4,.cls-5{fill:#fff;}.cls-4{fill-rule:evenodd;}</style></defs><g id="Layer_2" data-name="Layer 2"><g id="Layer_1_1:1_" data-name="Layer 1 (1:1)"><path class="cls-1" d="M11.18,0h14.3a2.81,2.81,0,0,1,2.8,3.6l-6.7,28.6a4.9,4.9,0,0,1-4.5,3.6H2.88a2.81,2.81,0,0,1-2.8-3.6L6.68,3.7A5,5,0,0,1,11.18,0"/><path class="cls-2" d="M24.28,0h16.4c2,0,1.1,1.6.6,3.6l-6.6,28.5c-.5,2-.3,3.6-2.3,3.6H16a2.81,2.81,0,0,1-2.8-3.6l6.6-28.5A5,5,0,0,1,24.28,0"/><path class="cls-3" d="M40.08,0h14.3a2.81,2.81,0,0,1,2.8,3.6l-6.6,28.5a4.9,4.9,0,0,1-4.5,3.6H31.68a2.81,2.81,0,0,1-2.8-3.6l6.6-28.5A5.26,5.26,0,0,1,40.08,0"/><path class="cls-4" d="M42.38,21.1l-1.7,5.8h.5l-.4,1.2h-.5l-.1.4h-1.7l.1-.4h-3.4l.3-1.1h.3l1.8-5.8L38,20h1.7l-.2.6a4.13,4.13,0,0,1,.9-.4c.4-.1,2.9-.2,2.9-.2l-.4,1.2h-.5Zm-3,0L39,22.6s.5-.2.8-.3a2.64,2.64,0,0,1,.7-.1l.3-1.1Zm-.7,2.2-.5,1.5a2.19,2.19,0,0,1,.8-.3,2.64,2.64,0,0,1,.7-.1l.3-1.1Zm-1,3.6H39l.4-1.3h-1.3Z"/><path class="cls-5" d="M43.08,19.9h1.8v.7c0,.1.1.2.3.2h.4l-.3,1.1h-1c-.8.1-1.2-.3-1.1-.7Z"/><path class="cls-5" d="M43.38,25.2h-1.7l.3-1h2l.3-.9h-1.9l.3-1.1h5.4l-.3,1.1H46l-.3.9h1.8l-.3,1h-2l-.3.4h.7l.2,1.2a.37.37,0,0,0,.1.3,2.27,2.27,0,0,0,.4.1h.2l-.4,1.2h-1a.52.52,0,0,1-.4-.2c-.1-.1-.3-.2-.3-.4l-.2-1.2-.9,1.2a1.56,1.56,0,0,1-1.3.7h-1.2l.3-1.1h.5a1,1,0,0,0,.3-.1c.1,0,.2-.1.3-.2Z"/><path class="cls-5" d="M24.58,22.5h4.5l-.3,1.1H27l-.3.9h1.9l-.3,1.1h-1.9l-.5,1.5c-.1.2.4.2.6.2l.9-.1L27,28.4h-2.1a.9.9,0,0,1-.5-.1c-.2,0-.3-.1-.3-.2a.4.4,0,0,1-.1-.5l.6-2h-1l.3-1.1h1l.3-.9h-1Z"/><path class="cls-5" d="M27.58,20.5h1.9l-.3,1.1h-2.6l-.3.2c-.1.1-.2.1-.3.2a1.29,1.29,0,0,1-.8.2h-.8l.3-1.1h.2c.2,0,.3,0,.4-.1a1.38,1.38,0,0,0,.3-.4l.5-.9H28Z"/><path class="cls-4" d="M30.28,19.9h1.6l-.2.8a3.05,3.05,0,0,1,.9-.5,8.92,8.92,0,0,1,1.1-.2h2.6l-.9,2.9a3.36,3.36,0,0,1-.4,1,.78.78,0,0,1-.4.4,1.42,1.42,0,0,1-.6.2h-3.4l-.7,2.3a.76.76,0,0,0-.1.4c0,.1.1.1.2.1l1.1-.1-.4,1.3h-2a.75.75,0,0,1-.5-.1c-.1-.1-.3-.2-.3-.4a3.54,3.54,0,0,0,.1-.6Zm3.4,3h-2.6l-.2.5h2.6Zm-2.5-.5a2.48,2.48,0,0,1,1.4-.6H34l.2-.6h-2.6Z"/><path class="cls-5" d="M34.88,24.6l-.1.7c-.1.2-.1.4-.3.5a1.56,1.56,0,0,1-.9.3h-.9v.8c0,.2,0,.2.1.2l.1.1H34l-.3,1.2h-1a3.47,3.47,0,0,1-1.3-.1c-.2-.1-.2-.2-.2-.5l.1-3.1h1.5v.6h.7a.35.35,0,0,0,.1-.2l.2-.5Z"/><path class="cls-5" d="M12.88,9.1c-.1.2-1,4.8-1,4.8a3.4,3.4,0,0,1-.9,2,2.1,2.1,0,0,1-1.1.4,1,1,0,0,1-1.1-.9v-.2L9,14s1-4.2,1.2-4.7V9.2H7.78l-.1.3-1.1,4.7-.1.4-.2,1.3a3,3,0,0,0,.2,1c.5.8,1.9,1,2.6,1a5.26,5.26,0,0,0,2.6-.6,4.26,4.26,0,0,0,1.7-2.6l.1-.5s1.1-4.3,1.3-4.9V9.2a5.82,5.82,0,0,1-1.9-.1"/><path class="cls-5" d="M18.78,17.7H17v-.1a3,3,0,0,0,.2-1l.1-.4a8.57,8.57,0,0,0,.3-1.7c0-.1.1-.5-.4-.5a.76.76,0,0,0-.5.2c-.1.4-.3,1.4-.4,1.8-.2,1-.2,1.1-.3,1.6l-.1.1h-1.8v-.1c.1-.6.3-1.2.4-1.7a18,18,0,0,0,.5-3h.1a14.81,14.81,0,0,0,1.9-.3l.1.1-.1.5c.2-.1.3-.2.5-.3a3,3,0,0,1,1.2-.3,1,1,0,0,1,1,.6c.2.4.1.9-.2,1.9l-.1.5c-.3,1.1-.4,1.3-.6,2.1Z"/><path class="cls-5" d="M21.68,17.7h-1.9c.1-.4.2-.6.2-.7s.1-.3.2-.7.2-.9.3-1.3a2.77,2.77,0,0,0,.1-.9h0a3.75,3.75,0,0,1,1-.1,4.4,4.4,0,0,0,1-.2h0a3.55,3.55,0,0,0-.2,1,3.55,3.55,0,0,0-.2,1c-.2.7-.2,1-.3,1.2a1.23,1.23,0,0,1-.2.7Z"/><path class="cls-5" d="M28.18,15.3c.3-1.1.1-1.6-.2-1.9a2,2,0,0,0-1.7-.6,3.24,3.24,0,0,0-2.2.7,4.35,4.35,0,0,0-1,1.9c-.2.7-.3,1.9.8,2.3a4.3,4.3,0,0,0,1.2.2,2.94,2.94,0,0,0,2.3-.9,4.91,4.91,0,0,0,.8-1.7m-1.9-.1a3.37,3.37,0,0,1-.4,1.2c-.2.2-.3.3-.5.3s-.4,0-.4-.5a2.2,2.2,0,0,1,.1-.8c.2-.8.4-1.5,1-1.5.4-.1.4.4.2,1.3"/><path class="cls-5" d="M45.68,17.8h-1.9l-.1-.1c.2-.8.4-1.6.6-2.5a13.06,13.06,0,0,0,.4-2.2l.1-.1c.9-.1,1.1-.2,2-.3v.1c-.2.7-.3,1.4-.5,2a21.13,21.13,0,0,1-.6,3.1Z"/><path class="cls-5" d="M46.08,15.4c.3-1.1-.8-.1-.9-.5-.2-.6-.1-1.7-1.1-2.1a2.59,2.59,0,0,0-2.1.7,4.35,4.35,0,0,0-1,1.9c-.2.7-.3,1.9.8,2.3a4.4,4.4,0,0,0,1,.2c1.1-.1,2-1.7,2.6-2.4s.7.2.7-.1m-1.7-.1a3.37,3.37,0,0,1-.4,1.2c-.1.2-.5.3-.7.3s-.4,0-.4-.5c0-.3.1-.5.1-.8.2-.8.4-1.5,1-1.5.4-.1.6.4.4,1.3"/><path class="cls-5" d="M33.08,17.7h-1.8v-.1a3,3,0,0,0,.2-1l.1-.4a8.57,8.57,0,0,0,.3-1.7c0-.1.1-.5-.3-.5a.76.76,0,0,0-.5.2c-.1.4-.3,1.4-.4,1.8-.2,1-.2,1.1-.3,1.6l-.1.1h-1.8v-.1c.1-.6.3-1.2.4-1.7a18,18,0,0,0,.5-3h.1a14.81,14.81,0,0,0,1.9-.3l.1.1-.1.5a2.19,2.19,0,0,1,.5-.3,3,3,0,0,1,1.2-.3,1,1,0,0,1,1,.6c.2.4.1.9-.2,1.9l-.1.5a8.5,8.5,0,0,0-.7,2.1Z"/><path class="cls-5" d="M40.08,11.8a1.7,1.7,0,0,1-1,1.3,3.18,3.18,0,0,1-1.4.2h-.3v-.1l.6-2.6v-.2h.2l1.2.1a1.05,1.05,0,0,1,.7,1.3m-.8-2.7h-3a1,1,0,0,1-.1.3l-.6,2.6s-1.3,5.5-1.4,5.7h2.1c.1-.3.4-1.8.4-1.8s.3-1.1.3-1.2l.2-.2h.1a5.37,5.37,0,0,0,3.5-.8,3.68,3.68,0,0,0,1.4-2.2,2,2,0,0,0,.1-.8,1.69,1.69,0,0,0-.3-1c-.4-.5-1.5-.6-2.7-.6"/><path class="cls-5" d="M52.78,12.7h0c-1,.1-1.1.1-1.9.2l-.1.1h0c-.6,1.4-.6,1.1-1.1,2.2v-.1l-.1-2.4-.1-.1a13.49,13.49,0,0,1-1.8.3l-.1.1v.1h0a9,9,0,0,1,.2,1.3c.1.4.1.9.2,1.3.1.7.1,1,.2,2.1-.6,1-.7,1.3-1.3,2.2v.1h1.7l.1-.2c.6-1.1,4.1-7.2,4.1-7.2"/><path class="cls-5" d="M22.48,13.3c.5-.3.5-.8.1-1a1.59,1.59,0,0,0-1.6.2c-.5.3-.5.8-.1,1a1.59,1.59,0,0,0,1.6-.2"/><path class="cls-5" d="M48.68,19.9,48,21.1a1.33,1.33,0,0,1-1.3.7h-1.1l.3-1.1h.5a.1.1,0,0,0,.1-.1l.4-.7Z"/></g></g></svg>