<svg xmlns="http://www.w3.org/2000/svg" xmlns:xlink="http://www.w3.org/1999/xlink" viewBox="0 0 54.02 34.5"><defs><style>.cls-1{fill:#fff;}.cls-2,.cls-3,.cls-4{fill:none;}.cls-3{clip-path:url(#clip-path);}.cls-4,.cls-6{clip-path:url(#clip-path-2);}.cls-5{clip-path:url(#clip-path-12);}.cls-7{fill:#ee7623;}.cls-8{fill:#231f20;}</style><clipPath id="clip-path"><rect class="cls-2" x="-64.7" y="-90.4" width="184.8" height="239.2"/></clipPath><clipPath id="clip-path-2"><rect class="cls-2" x="-64.7" y="-90.4" width="184.8" height="239.2"/></clipPath><clipPath id="clip-path-12"><rect class="cls-1" width="54" height="34.5"/></clipPath></defs><g id="Layer_2" data-name="Layer 2"><g id="Layer_1_1:1_" data-name="Layer 1 (1:1)"><rect class="cls-1" width="54" height="34.5"/><g class="cls-5"><g class="cls-6"><path class="cls-7" d="M53.6,19.2s-14.7,10.3-41.5,15H53.6Z"/></g><g class="cls-6"><path class="cls-8" d="M53.8,0H0V34.5H54V0Zm-.2.4V34.2H.4V.4H53.6"/></g><g class="cls-6"><path class="cls-8" d="M4.7,10.6H2.5v7.8H4.7a4.29,4.29,0,0,0,2.8-.9,3.76,3.76,0,0,0,1.4-3,3.87,3.87,0,0,0-3.83-3.91,2.29,2.29,0,0,0-.37,0m1.8,5.9a3.09,3.09,0,0,1-2.1.6H4V11.9h.4a3.09,3.09,0,0,1,2.1.6,2.76,2.76,0,0,1,.8,1.9,2.87,2.87,0,0,1-.8,2.1"/></g><g class="cls-6"><rect class="cls-8" x="9.6" y="10.6" width="1.5" height="7.8"/></g><g class="cls-6"><path class="cls-8" d="M14.9,13.6c-.9-.3-1.2-.6-1.2-1a1,1,0,0,1,1.09-.9h0a1.57,1.57,0,0,1,1.2.6l.8-1a3.38,3.38,0,0,0-2.3-.9,2.28,2.28,0,0,0-2.4,2.14v.06c0,1.1.5,1.6,1.9,2.1a8.49,8.49,0,0,0,1.1.4,1,1,0,0,1,.5.8A1.13,1.13,0,0,1,14.44,17h0a2.05,2.05,0,0,1-1.7-1l-1,.9a3.07,3.07,0,0,0,2.7,1.5A2.56,2.56,0,0,0,17.1,16V15.8c0-1-.5-1.6-2.2-2.2"/></g><g class="cls-6"><path class="cls-8" d="M17.6,14.5a4.06,4.06,0,0,0,4,4.1h.08a3.43,3.43,0,0,0,1.9-.5V16.4a2.4,2.4,0,0,1-1.8.9,2.55,2.55,0,0,1-2.6-2.49,1.47,1.47,0,0,1,0-.21,2.56,2.56,0,0,1,4.5-1.8V11a4.51,4.51,0,0,0-1.9-.5,4,4,0,0,0-4.19,3.79,1.48,1.48,0,0,0,0,.21"/></g><g class="cls-6"><polygon class="cls-8" points="35.7 15.9 33.6 10.6 32 10.6 35.3 18.6 36.1 18.6 39.5 10.6 37.8 10.6 35.7 15.9"/></g><g class="cls-6"><polygon class="cls-8" points="40.2 18.4 44.5 18.4 44.5 17.1 41.7 17.1 41.7 15 44.4 15 44.4 13.7 41.7 13.7 41.7 11.9 44.5 11.9 44.5 10.6 40.2 10.6 40.2 18.4"/></g><g class="cls-6"><path class="cls-8" d="M50.5,12.9c0-1.5-1-2.3-2.8-2.3H45.4v7.8H47V15.3h.2l2.1,3.1h1.9l-2.5-3.3a2,2,0,0,0,1.8-2.18v0m-3,1.3H47V11.8h.5c.9,0,1.5.4,1.5,1.2s-.6,1.2-1.5,1.2"/></g><g class="cls-6"><path class="cls-7" d="M32.4,14.5a4.2,4.2,0,1,1-4.2-4.2h0a4.24,4.24,0,0,1,4.2,4.2"/></g><g class="cls-6"><path class="cls-8" d="M51.3,10.8c0-.1-.1-.2-.3-.2h-.2v.7H51V11l.2.3h.2l-.2-.3c.1-.1.1-.1.1-.2m-.2.1h0v-.15h0c.1,0,.1,0,0,.2h0"/></g></g></g></g></svg>