<svg xmlns="http://www.w3.org/2000/svg" viewBox="0 0 56.6 37.4"><defs><style>.cls-1{opacity:0;}.cls-2{fill:#fff;}.cls-3{fill:#ff5f00;}.cls-4{fill:#eb001b;}.cls-5{fill:#f79e1b;}</style></defs><g id="Layer_2" data-name="Layer 2"><g id="Layer_1_1:1_" data-name="Layer 1 (1:1)"><g class="cls-1"><rect class="cls-2" width="56.6" height="37.4"/></g><rect class="cls-3" x="20.8" y="6.5" width="14.9" height="24.4"/><path class="cls-4" d="M22.4,18.7A15.5,15.5,0,0,1,28.3,6.5a15.52,15.52,0,1,0,0,24.4A15.8,15.8,0,0,1,22.4,18.7Z"/><path class="cls-5" d="M51.9,28.3v-.5h.2v-.1h-.5v.1h.2l.1.5Zm1,0v-.6h-.2l-.2.4-.2-.4h-.1v.6h.1v-.5l.2.4h.1l.2-.4v.5Z"/><path class="cls-5" d="M53.4,18.7A15.45,15.45,0,0,1,37.9,34.2a15.71,15.71,0,0,1-9.6-3.3A15.55,15.55,0,0,0,30.9,9.1a16,16,0,0,0-2.6-2.6A15.5,15.5,0,0,1,53.4,18.7Z"/></g></g></svg>