<svg xmlns="http://www.w3.org/2000/svg" viewBox="0 0 56.3 35.8"><defs><style>.cls-1{fill:#fff;}.cls-2{fill:#fcb316;}.cls-3{fill:#10357f;}</style></defs><g id="Layer_2" data-name="Layer 2"><g id="Layer_1_1:1_" data-name="Layer 1 (1:1)"><rect class="cls-1" width="56.3" height="35.8"/><rect class="cls-2" x="1" y="30" width="54.4" height="4.9"/><rect class="cls-3" x="1" y="0.9" width="54.4" height="4.9"/><path class="cls-3" d="M22.8,11.2,17.2,24.6H13.5L10.7,13.9c-.2-.7-.3-.9-.8-1.2a10.46,10.46,0,0,0-3.4-1.1l.1-.4h5.9a1.6,1.6,0,0,1,1.6,1.4l1.5,7.8,3.6-9.1,3.6-.1Zm14.3,9c0-3.5-4.9-3.7-4.9-5.3,0-.5.5-1,1.5-1.1a6.21,6.21,0,0,1,3.4.6l.6-2.8a9.11,9.11,0,0,0-3.2-.6c-3.4,0-5.8,1.8-5.9,4.4,0,1.9,1.7,3,3,3.7s1.8,1.1,1.8,1.7c0,.9-1.1,1.3-2.1,1.3a9.13,9.13,0,0,1-3.6-.8l-.6,2.9a9.71,9.71,0,0,0,3.9.7c3.8-.1,6.1-1.9,6.1-4.7m9.1,4.4h3.2L46.6,11.2h-3a1.64,1.64,0,0,0-1.5,1L36.9,24.6h3.6l.7-2h4.5Zm-3.9-4.7,1.8-5,1,5ZM27.7,11.2,24.8,24.6H21.3l2.9-13.4Z"/></g></g></svg>