<svg xmlns="http://www.w3.org/2000/svg" viewBox="0 0 214.4 214.4"><defs><style>.cls-1{fill:#595ca9;}.cls-2{fill:#fff;}</style></defs><g id="Layer_2" data-name="Layer 2"><g id="Ebene_1" data-name="Ebene 1"><circle class="cls-1" cx="107.2" cy="107.2" r="107.2" transform="translate(-44.4 107.2) rotate(-45)"/><path class="cls-2" d="M84,65.12q0-.3.09-.6a5.26,5.26,0,0,1,.35-1.13,5.87,5.87,0,0,1,.56-1,3.91,3.91,0,0,1,.35-.48,4.18,4.18,0,0,1,.4-.44l.44-.41.48-.35a5.87,5.87,0,0,1,1-.56,6.53,6.53,0,0,1,1.14-.35l.59-.08c.2,0,.4,0,.6,0a6.09,6.09,0,0,1,6.07,6.08q0,.3,0,.6a5.58,5.58,0,0,1-.09.59A6.49,6.49,0,0,1,95.63,68a5.79,5.79,0,0,1-.56,1,7.23,7.23,0,0,1-.76.93c-.14.14-.29.27-.44.4a4.21,4.21,0,0,1-.48.35,6.23,6.23,0,0,1-1,.56,6.53,6.53,0,0,1-1.14.35,5.58,5.58,0,0,1-.59.09,5.83,5.83,0,0,1-.59,0q-.3,0-.6,0a5.58,5.58,0,0,1-.59-.09,6.53,6.53,0,0,1-1.14-.35,5.87,5.87,0,0,1-1-.56c-.16-.11-.32-.22-.48-.35s-.3-.26-.44-.4a4.28,4.28,0,0,1-.4-.45,3.27,3.27,0,0,1-.35-.48,5.79,5.79,0,0,1-.56-1,5.17,5.17,0,0,1-.35-1.14,5.58,5.58,0,0,1-.09-.59A5.92,5.92,0,0,1,84,65.12Z"/><path class="cls-2" d="M145.87,155.94A54.69,54.69,0,0,1,68.53,78.6a6.08,6.08,0,0,1,8.6,0L94.31,95.79a6.08,6.08,0,0,1,0,8.59,18.23,18.23,0,1,0,25.78,0L102.91,87.19a6.07,6.07,0,0,1,8.59-8.59l17.18,17.19a30.38,30.38,0,1,1-46.83,4.72l-8.72-8.72a42.54,42.54,0,1,0,64.15-4.6L102.91,52.82a6.07,6.07,0,0,1,8.59-8.59L145.87,78.6a54.68,54.68,0,0,1,0,77.34Z"/></g></g></svg>