<?xml version="1.0" encoding="utf-8"?>
<!-- Generator: Adobe Illustrator 26.0.1, SVG Export Plug-In . SVG Version: 6.00 Build 0)  -->
<svg version="1.1" id="Layer_1" xmlns="http://www.w3.org/2000/svg" xmlns:xlink="http://www.w3.org/1999/xlink" x="0px" y="0px"
	 viewBox="0 0 214.4 214.4" style="enable-background:new 0 0 214.4 214.4;" xml:space="preserve">
<style type="text/css">
	.st0{fill:#595CA9;}
	.st1{fill:#FFFFFF;}
</style>
<g id="Layer_2_00000106854860969801127460000004183419107472987777_">
	<g id="Ebene_1">
		<circle class="st0" cx="107.2" cy="107.2" r="107.2"/>
		<path class="st1" d="M77.6,53.6c0-0.3,0-0.5,0.1-0.8c0.1-0.5,0.2-1,0.4-1.4c0.2-0.4,0.4-0.9,0.7-1.3c0.1-0.2,0.3-0.4,0.4-0.6
			c0.2-0.2,0.3-0.4,0.5-0.6l0.6-0.5L81,48c0.4-0.3,0.8-0.5,1.3-0.7c0.5-0.2,1-0.3,1.5-0.4l0.8-0.1c0.3,0,0.5,0,0.8,0
			c4.3,0,7.7,3.5,7.7,7.7c0,0.3,0,0.5,0,0.8c0,0.3-0.1,0.5-0.1,0.8c-0.1,0.4-0.3,0.9-0.4,1.3c-0.2,0.4-0.4,0.9-0.7,1.3
			c-0.3,0.4-0.6,0.8-1,1.2c-0.2,0.2-0.4,0.3-0.6,0.5c-0.2,0.2-0.4,0.3-0.6,0.4c-0.4,0.3-0.8,0.5-1.3,0.7c-0.5,0.2-1,0.3-1.5,0.4
			c-0.2,0.1-0.5,0.1-0.8,0.1c-0.3,0-0.5,0-0.8,0c-0.3,0-0.5,0-0.8,0c-0.3,0-0.5-0.1-0.8-0.1c-0.5-0.1-1-0.3-1.5-0.4
			c-0.4-0.2-0.9-0.4-1.3-0.7c-0.2-0.1-0.4-0.3-0.6-0.4c-0.2-0.2-0.4-0.3-0.6-0.5c-0.2-0.2-0.4-0.4-0.5-0.6c-0.2-0.2-0.3-0.4-0.4-0.6
			c-0.3-0.4-0.5-0.8-0.7-1.3c-0.2-0.5-0.4-1-0.4-1.5c-0.1-0.2-0.1-0.5-0.1-0.8C77.6,54.6,77.6,54.1,77.6,53.6z"/>
		<path class="st1" d="M156.4,169.4c-27.5,27-71.6,26.6-98.6-0.9c-26.6-27.1-26.6-70.5,0-97.7c3-3,7.9-3,11,0c0,0,0,0,0,0l21.9,21.9
			c3,3,3,7.9,0,10.9c-9.1,9.1-9.1,23.8,0,32.9s23.8,9.1,32.9,0s9.1-23.8,0-32.9c0,0,0,0,0,0l-21.9-21.9c-3-3-3-7.9,0-10.9
			c3-3,7.9-3,10.9,0l21.9,21.9c15.1,15.1,15.1,39.6,0,54.8c-15.1,15.1-39.6,15.1-54.8,0c-13-13-15.1-33.4-4.9-48.7L63.7,87.6
			c-17.9,24-13,58,10.9,75.9s58,13,75.9-10.9c16.1-21.6,14-51.7-5.1-70.8l-43.8-43.8c-3-3-3-7.9,0-10.9c3-3,7.9-3,10.9,0l0,0
			l43.8,43.8C183.7,98,183.7,142.1,156.4,169.4C156.4,169.4,156.4,169.4,156.4,169.4z"/>
	</g>
</g>
</svg>
