<svg xmlns="http://www.w3.org/2000/svg" viewBox="0 0 395.57 66.65"><defs><style>.cls-1{fill:#595ca9;}</style></defs><g id="Layer_2" data-name="Layer 2"><g id="Ebene_1" data-name="Ebene 1"><path class="cls-1" d="M112.88,28.27c0,7.74-5.8,12.55-15.08,12.55h-7v9.57h-8V15.66h15C107.08,15.66,112.88,20.48,112.88,28.27Zm-8.13,0c0-3.82-2.49-6.06-7.4-6.06H90.8V34.27h6.55C102.26,34.27,104.75,32,104.75,28.27Z"/><path class="cls-1" d="M138,35.11V15.66h8V34.82c0,6.59,2.88,9.32,7.74,9.32s7.74-2.73,7.74-9.32V15.66h7.94V35.11c0,10.22-5.86,15.88-15.73,15.88S138,45.33,138,35.11Z"/><path class="cls-1" d="M197.22,15.66H213c11.36,0,19.15,6.85,19.15,17.37S224.36,50.39,213,50.39H197.22ZM212.6,43.8C219.5,43.8,224,39.68,224,33S219.5,22.26,212.6,22.26h-7.34V43.8Z"/><path class="cls-1" d="M258,15.66h15.78C285.18,15.66,293,22.51,293,33s-7.79,17.36-19.15,17.36H258ZM273.42,43.8c6.9,0,11.41-4.12,11.41-10.77s-4.51-10.77-11.41-10.77h-7.34V43.8Z"/><path class="cls-1" d="M318.87,15.66h8V43.84h17.42v6.55H318.87Z"/><path class="cls-1" d="M395.57,43.94v6.45h-26.9V15.66h26.25v6.45H376.66v7.55h16.13v6.25H376.66v8Z"/><path class="cls-1" d="M25.93.92a3.13,3.13,0,0,0,0,4.42L43.62,23A21.89,21.89,0,1,1,12.67,54,21.88,21.88,0,0,1,10.61,25.4l4.49,4.49A15.63,15.63,0,0,0,39.2,49.56a15.63,15.63,0,0,0,0-22.11l-8.84-8.84A3.13,3.13,0,0,0,25.93,23l8.85,8.84a9.38,9.38,0,1,1-13.27,0,3.13,3.13,0,0,0,0-4.42l-8.84-8.84a3.13,3.13,0,0,0-4.43,0,28.15,28.15,0,0,0,39.81,39.8,28.15,28.15,0,0,0,0-39.8L30.36.92A3.12,3.12,0,0,0,25.93.92Z"/><path class="cls-1" d="M19.91,15a3.09,3.09,0,0,0,.59-.18,3.14,3.14,0,0,0,.54-.29l.24-.18a1.51,1.51,0,0,0,.23-.21l.21-.22.18-.25a3.5,3.5,0,0,0,.29-.54,4,4,0,0,0,.18-.59c0-.1,0-.2,0-.3s0-.21,0-.31A3.14,3.14,0,0,0,19.3,8.84l-.31,0-.3.05a4,4,0,0,0-.59.17,3.5,3.5,0,0,0-.54.29l-.24.18-.23.21-.21.23-.18.25a3.5,3.5,0,0,0-.29.54,3,3,0,0,0-.18.58,2.91,2.91,0,0,0,0,.31,3.11,3.11,0,0,0,0,.61c0,.1,0,.2,0,.3a3.09,3.09,0,0,0,.18.59,3.5,3.5,0,0,0,.29.54l.18.25.21.22a1.51,1.51,0,0,0,.23.21,1.88,1.88,0,0,0,.24.18,2.81,2.81,0,0,0,.54.29,3.09,3.09,0,0,0,.59.18l.3,0,.31,0,.31,0Z"/></g></g></svg>