<svg xmlns="http://www.w3.org/2000/svg" viewBox="0 0 182.65 262.81"><defs><style>.cls-1{font-size:26.3px;font-family:Montserrat-Bold, Montserrat;font-weight:700;letter-spacing:0.39em;}.cls-1,.cls-3{fill:#595ca9;}.cls-2{letter-spacing:0.4em;}</style></defs><g id="Layer_2" data-name="Layer 2"><g id="Ebene_1" data-name="Ebene 1"><text class="cls-1" transform="translate(1.45 255.81)">P<tspan class="cls-2" x="29.43" y="0">UDDLE</tspan></text><path class="cls-3" d="M84.15,3a10.15,10.15,0,0,0,0,14.35l57.4,57.41A71,71,0,0,1,41.1,175.18a71,71,0,0,1-6.67-92.77L49,97a50.74,50.74,0,1,0,78.2-7.89L98.5,60.37A10.15,10.15,0,1,0,84.15,74.73l28.7,28.7a30.44,30.44,0,1,1-43,0,10.15,10.15,0,0,0,0-14.35L41.1,60.37a10.15,10.15,0,0,0-14.35,0A91.33,91.33,0,1,0,155.9,189.53a91.33,91.33,0,0,0,0-129.16L98.5,3A10.15,10.15,0,0,0,84.15,3Z"/><path class="cls-3" d="M64.61,48.8a10.67,10.67,0,0,0,1.9-.58,11.26,11.26,0,0,0,1.75-.93,9.27,9.27,0,0,0,.8-.6,10.07,10.07,0,0,0,1.41-1.41,9.15,9.15,0,0,0,.59-.8A9.46,9.46,0,0,0,72,42.73a9.7,9.7,0,0,0,.58-1.9c.07-.32.11-.65.15-1a8.1,8.1,0,0,0,0-1A10.16,10.16,0,0,0,62.63,28.7c-.34,0-.67,0-1,.05s-.66.09-1,.15a10.33,10.33,0,0,0-1.89.58,10.19,10.19,0,0,0-1.76.93c-.27.19-.54.38-.8.59a9.46,9.46,0,0,0-.74.68,9.93,9.93,0,0,0-1.26,1.54A10.1,10.1,0,0,0,53.26,35a9.85,9.85,0,0,0-.59,1.89c-.06.33-.11.66-.14,1a9.45,9.45,0,0,0,0,2c0,.34.08.67.14,1a9.73,9.73,0,0,0,.59,1.9,10.1,10.1,0,0,0,.93,1.75,9.15,9.15,0,0,0,.59.8,7.85,7.85,0,0,0,.67.74,9.32,9.32,0,0,0,.74.67c.26.22.53.41.8.6a10.93,10.93,0,0,0,1.76.93,10.33,10.33,0,0,0,1.89.58c.33.06.65.11,1,.14a8.28,8.28,0,0,0,2,0C64,48.91,64.28,48.86,64.61,48.8Z"/></g></g></svg>